<svg width="16" height="16" viewBox="0 0 16 16" fill="none" xmlns="http://www.w3.org/2000/svg">
<path d="M7.0445 4.42516C7.33487 3.48548 8.66497 3.48548 8.95534 4.42516L9.35592 5.72147C9.4854 6.14047 9.87279 6.42622 10.3113 6.42622H11.7103C12.6668 6.42622 13.0775 7.6402 12.3174 8.22088L11.1007 9.15035C10.7676 9.40476 10.6286 9.83984 10.7523 10.2402L11.1964 11.6775C11.4839 12.6077 10.4076 13.3584 9.63395 12.7674L8.60698 11.9829C8.24858 11.7091 7.75126 11.7091 7.39286 11.9829L6.36588 12.7674C5.59219 13.3584 4.51595 12.6077 4.8034 11.6775L5.24754 10.2402C5.37127 9.83984 5.2322 9.40476 4.89917 9.15035L3.68249 8.22088C2.92237 7.6402 3.33301 6.42622 4.28955 6.42622H5.68849C6.12705 6.42622 6.51443 6.14047 6.64391 5.72147L7.0445 4.42516Z" fill="#B5B5B6"/>
</svg>
