<svg width="24" height="24" viewBox="0 0 24 24" fill="none" xmlns="http://www.w3.org/2000/svg">
<path fill-rule="evenodd" clip-rule="evenodd" d="M8.13827 3.77225C9.28144 2.80913 10.7775 2.39999 11.9665 2.39999C13.1547 2.39999 14.6639 2.80865 15.821 3.76952C16.9326 4.6927 17.6895 6.10478 17.5415 8.04096C17.8102 8.20742 18.0516 8.44975 18.1997 8.79555C18.4305 9.33476 18.4527 10.0697 18.3488 10.7013C18.2952 11.0274 18.2033 11.3569 18.0667 11.6506C17.9515 11.8984 17.791 12.1494 17.569 12.3435C17.5817 12.6228 17.5576 12.9863 17.4379 13.3495C17.2657 13.8723 16.8799 14.4245 16.1248 14.6548C15.8263 14.7458 15.4607 14.7275 15.1392 14.6859C15.0004 14.668 14.8544 14.6435 14.704 14.6136C14.7439 14.691 14.7903 14.7722 14.8518 14.8659C15.018 15.119 15.2758 15.4107 15.7517 15.7108C15.9374 15.8279 16.1867 15.9098 16.5409 15.9959C16.6262 16.0167 16.7195 16.038 16.8182 16.0605C17.0961 16.124 17.4173 16.1975 17.7265 16.2957C18.6241 16.5811 19.567 17.1136 20.2321 18.4212C20.7385 19.417 20.8179 20.2089 20.5484 20.7988C20.2965 21.3499 19.7709 21.6225 19.3486 21.5986H4.65126C4.22899 21.6225 3.70341 21.3499 3.45151 20.7988C3.18192 20.2089 3.26136 19.417 3.7678 18.4212C4.43282 17.1136 5.37575 16.5811 6.2734 16.2957C6.58254 16.1975 6.90375 16.124 7.18169 16.0605C7.28038 16.038 7.37363 16.0167 7.45893 15.9959C7.81312 15.9098 8.06248 15.8279 8.2482 15.7108C8.72406 15.4107 8.98185 15.119 9.14804 14.8659C9.2551 14.7028 9.31631 14.5776 9.37759 14.4441C9.19127 14.2746 9.01725 14.0865 8.85616 13.8818C8.57476 13.5242 8.33313 13.1171 8.13139 12.6698C7.99645 12.7031 7.85504 12.7262 7.71676 12.7376C7.35124 12.7678 6.85474 12.7294 6.44215 12.4332C6.16043 12.2309 5.96536 11.9386 5.83143 11.6506C5.69486 11.3569 5.60297 11.0274 5.54934 10.7013C5.44549 10.0697 5.46768 9.33476 5.69849 8.79555C5.86183 8.41399 6.14401 8.16095 6.44706 7.99625C6.31237 6.08722 7.04871 4.6902 8.13827 3.77225ZM7.42979 8.91961C7.3433 8.9344 7.26043 8.95443 7.18396 8.98019C6.95321 9.05793 6.8468 9.16235 6.80167 9.26778C6.69388 9.51958 6.65012 9.99984 6.73344 10.5066C6.7734 10.7496 6.83839 10.9701 6.91953 11.1446C7.0033 11.3247 7.08678 11.4188 7.14201 11.4584C7.2262 11.5189 7.38925 11.5606 7.61796 11.5417C7.65467 11.5387 7.69061 11.5342 7.72522 11.5287C7.5997 11.0693 7.50719 10.5828 7.44779 10.0761C7.40082 9.67551 7.39648 9.28913 7.42979 8.91961ZM7.69564 7.68938C7.67492 7.69014 7.65407 7.69107 7.63311 7.69219C7.59322 6.28938 8.15207 5.32973 8.91144 4.68997C9.80428 3.93776 11.0127 3.59999 11.9665 3.59999C12.921 3.59999 14.1458 3.93824 15.0543 4.69269C15.8273 5.33462 16.396 6.29473 16.3583 7.69517C16.3543 7.6949 16.3504 7.69464 16.3464 7.69439C16.1369 7.04284 15.8014 6.47757 15.3722 6.01122C14.4906 5.05328 13.2464 4.54917 11.9967 4.54917C10.1401 4.54917 8.37058 5.77506 7.69564 7.68938ZM16.5791 8.93476C16.6031 9.29764 16.5932 9.67903 16.5455 10.0775C16.4836 10.595 16.3933 11.0842 16.274 11.5412C16.276 11.5414 16.2781 11.5415 16.2802 11.5417C16.5089 11.5606 16.672 11.5189 16.7561 11.4584C16.8114 11.4188 16.8949 11.3247 16.9786 11.1446C17.0598 10.9701 17.1248 10.7496 17.1647 10.5066C17.248 9.99984 17.2043 9.51958 17.0965 9.26778C17.0469 9.15196 16.9418 9.05145 16.7316 8.97796C16.6835 8.96112 16.6324 8.94676 16.5791 8.93476ZM15.88 12.695C15.7527 12.9875 15.6091 13.2605 15.4491 13.5125C15.642 13.5282 15.7438 13.5164 15.7748 13.507C16.0682 13.4175 16.2159 13.224 16.2982 12.974C16.323 12.8988 16.3403 12.8215 16.3519 12.7459C16.2927 12.7451 16.2356 12.7421 16.1814 12.7376C16.0814 12.7294 15.9797 12.715 15.88 12.695ZM14.1637 13.2457C13.4899 13.0523 12.7841 12.7877 12.2744 12.5449C11.9753 12.4024 11.6172 12.5293 11.4747 12.8285C11.3322 13.1276 11.4591 13.4857 11.7583 13.6282C12.1013 13.7917 12.5129 13.9597 12.9443 14.1132C12.6537 14.2128 12.3381 14.2633 11.9967 14.2633C11.1112 14.2633 10.3732 13.8691 9.79918 13.1397C9.21387 12.3959 8.79919 11.2974 8.63962 9.93635C8.34468 7.4207 10.1755 5.74917 11.9967 5.74917C12.9303 5.74917 13.8476 6.1267 14.4893 6.82385C15.1222 7.51154 15.5201 8.54697 15.354 9.93495C15.1768 11.4167 14.7599 12.5086 14.1866 13.2177C14.179 13.2271 14.1714 13.2364 14.1637 13.2457ZM13.6248 15.1347C13.1319 15.351 12.5867 15.4633 11.9967 15.4633C11.4108 15.4633 10.8712 15.341 10.3844 15.1165C10.3164 15.25 10.2378 15.3925 10.1511 15.5245C9.99169 15.7674 9.78676 16.0165 9.50916 16.2631C10.0023 16.5697 10.7175 16.8351 11.5446 16.9136C12.4971 17.004 13.5382 16.8396 14.4763 16.2503C14.206 16.0078 14.0054 15.7631 13.8487 15.5245C13.766 15.3985 13.6906 15.2629 13.6248 15.1347ZM15.565 16.9522C14.2595 17.9605 12.7523 18.2336 11.4312 18.1082C10.2381 17.995 9.13018 17.5492 8.42303 16.9568C8.19359 17.0464 7.96003 17.1091 7.74234 17.162C7.62473 17.1906 7.51205 17.2163 7.40218 17.2414C7.14071 17.3012 6.89513 17.3573 6.63694 17.4393C5.96339 17.6535 5.32195 18.0125 4.83741 18.9652C4.40603 19.8134 4.49272 20.1901 4.54292 20.3C4.57897 20.3788 4.62276 20.3954 4.62679 20.3986H19.3731C19.3771 20.3954 19.4209 20.3788 19.4569 20.3C19.5071 20.1901 19.5938 19.8134 19.1624 18.9652C18.6779 18.0125 18.0365 17.6535 17.3629 17.4393C17.1047 17.3573 16.8592 17.3012 16.5977 17.2414C16.4878 17.2163 16.3751 17.1906 16.2575 17.162C16.0361 17.1082 15.7982 17.0442 15.565 16.9522Z" fill="#0B0B0C"/>
</svg>
