<svg width="16" height="17" viewBox="0 0 16 17" fill="none" xmlns="http://www.w3.org/2000/svg">
<circle cx="8" cy="8.5" r="6" fill="#0B0B0C"/>
<path fill-rule="evenodd" clip-rule="evenodd" d="M10.7949 5.63806C11.0552 5.89841 11.013 6.36273 10.7006 6.67515L6.17513 11.2006C5.86271 11.5131 5.39839 11.5553 5.13804 11.2949C4.87769 11.0346 4.9199 10.5702 5.23232 10.2578L9.7578 5.73234C10.0702 5.41992 10.5345 5.37771 10.7949 5.63806Z" fill="white"/>
<path fill-rule="evenodd" clip-rule="evenodd" d="M5.18558 5.63806C5.44593 5.37771 5.91025 5.41992 6.22267 5.73234L10.7482 10.2578C11.0606 10.5702 11.1028 11.0346 10.8424 11.2949C10.5821 11.5553 10.1178 11.5131 9.80534 11.2006L5.27986 6.67515C4.96744 6.36273 4.92523 5.89841 5.18558 5.63806Z" fill="white"/>
</svg>
