<svg width="24" height="24" viewBox="0 0 24 24" fill="none" xmlns="http://www.w3.org/2000/svg">
<path fill-rule="evenodd" clip-rule="evenodd" d="M10.3863 3.77595C10.5486 3.00386 11.2125 2.39999 12.0445 2.39999C12.8865 2.39999 13.5562 3.01832 13.7083 3.80359C16.3657 4.60418 18.2871 7.15457 18.2871 10.1429V14.4328C18.2871 14.7362 18.403 15.0224 18.6018 15.2296L21.3523 18.0969C21.8555 18.6215 21.5487 19.6 20.7255 19.6H14.4952C14.2347 20.7331 13.2527 21.6 12.0445 21.6H11.7705C10.5623 21.6 9.58032 20.7331 9.31982 19.6H3.27471C2.45151 19.6 2.14469 18.6215 2.64792 18.0969L5.3984 15.2296C5.59719 15.0224 5.71304 14.7362 5.71304 14.4328V10.1429C5.71304 7.11926 7.68019 4.54397 10.3863 3.77595ZM12.0001 4.74332C9.20722 4.78137 6.91304 7.16117 6.91304 10.1429V14.4328C6.91304 15.0387 6.68238 15.6246 6.26439 16.0603L4.02002 18.4H19.9802L17.7358 16.0603C17.3178 15.6246 17.0871 15.0387 17.0871 14.4328V10.1429C17.0871 7.16117 14.793 4.78137 12.0001 4.74332ZM10.5781 19.6C10.7931 20.0808 11.2576 20.4 11.7705 20.4H12.0445C12.5574 20.4 13.0219 20.0808 13.237 19.6H10.5781Z" fill="#0B0B0C"/>
<circle cx="16.8001" cy="7.2" r="7.2" fill="#FF3E5B"/>
<path d="M12.3694 6.05714C12.3694 6.51774 12.4985 6.87272 12.7569 7.12207C13.0152 7.37142 13.3741 7.4961 13.8333 7.4961C14.0809 7.4961 14.2998 7.458 14.49 7.38181C14.6801 7.30216 14.8398 7.19826 14.969 7.07012C15.1017 6.93852 15.2022 6.78787 15.2704 6.61818C15.3386 6.44502 15.3727 6.26493 15.3727 6.07792C15.3727 5.85281 15.335 5.65021 15.2596 5.47012C15.1879 5.28657 15.0856 5.13246 14.9528 5.00779C14.8201 4.87965 14.6622 4.78268 14.4792 4.71688C14.2998 4.64761 14.1007 4.61298 13.8818 4.61298C13.6557 4.61298 13.4494 4.64935 13.2628 4.72207C13.0762 4.79134 12.9166 4.89004 12.7838 5.01818C12.651 5.14631 12.5488 5.2987 12.477 5.47532C12.4053 5.65194 12.3694 5.84588 12.3694 6.05714ZM14.49 8.36363C14.6299 8.18701 14.7609 8.01385 14.8829 7.84415C14.6891 7.98614 14.472 8.0935 14.2316 8.16623C13.9948 8.23896 13.7418 8.27532 13.4727 8.27532C13.1893 8.27532 12.9166 8.22857 12.6546 8.13506C12.3963 8.04155 12.1666 7.90476 11.9657 7.72467C11.7684 7.54112 11.6105 7.31601 11.4921 7.04934C11.3737 6.78268 11.3145 6.47618 11.3145 6.12986C11.3145 5.80432 11.3772 5.49783 11.5028 5.21038C11.6284 4.92294 11.8042 4.67359 12.0303 4.46233C12.2599 4.24761 12.5326 4.07965 12.8484 3.95844C13.1677 3.83376 13.5176 3.77142 13.8979 3.77142C14.2747 3.77142 14.6156 3.8303 14.9205 3.94805C15.2291 4.0658 15.4911 4.23203 15.7064 4.44675C15.9216 4.658 16.0885 4.91255 16.2069 5.21038C16.3253 5.50822 16.3845 5.83549 16.3845 6.1922C16.3845 6.41038 16.363 6.61818 16.3199 6.81558C16.2805 7.01298 16.2213 7.20519 16.1423 7.3922C16.067 7.57922 15.9737 7.7645 15.8624 7.94805C15.7548 8.12813 15.631 8.31341 15.4911 8.50389L13.6342 11.0753C13.584 11.1446 13.5104 11.2017 13.4135 11.2467C13.3202 11.2918 13.2126 11.3143 13.0906 11.3143H12.1272L14.49 8.36363Z" fill="white"/>
<path d="M18.6136 6.05714C18.6136 6.51774 18.7428 6.87272 19.0011 7.12207C19.2595 7.37142 19.6183 7.4961 20.0776 7.4961C20.3251 7.4961 20.544 7.458 20.7342 7.38181C20.9244 7.30216 21.084 7.19826 21.2132 7.07012C21.346 6.93852 21.4464 6.78787 21.5146 6.61818C21.5828 6.44502 21.6169 6.26493 21.6169 6.07792C21.6169 5.85281 21.5792 5.65021 21.5039 5.47012C21.4321 5.28657 21.3298 5.13246 21.1971 5.00779C21.0643 4.87965 20.9064 4.78268 20.7234 4.71688C20.544 4.64761 20.3449 4.61298 20.126 4.61298C19.9 4.61298 19.6936 4.64935 19.507 4.72207C19.3205 4.79134 19.1608 4.89004 19.028 5.01818C18.8953 5.14631 18.793 5.2987 18.7212 5.47532C18.6495 5.65194 18.6136 5.84588 18.6136 6.05714ZM20.7342 8.36363C20.8741 8.18701 21.0051 8.01385 21.1271 7.84415C20.9333 7.98614 20.7163 8.0935 20.4758 8.16623C20.239 8.23896 19.9861 8.27532 19.717 8.27532C19.4335 8.27532 19.1608 8.22857 18.8989 8.13506C18.6405 8.04155 18.4109 7.90476 18.2099 7.72467C18.0126 7.54112 17.8547 7.31601 17.7363 7.04934C17.6179 6.78268 17.5587 6.47618 17.5587 6.12986C17.5587 5.80432 17.6215 5.49783 17.7471 5.21038C17.8726 4.92294 18.0485 4.67359 18.2745 4.46233C18.5042 4.24761 18.7769 4.07965 19.0926 3.95844C19.412 3.83376 19.7618 3.77142 20.1422 3.77142C20.5189 3.77142 20.8598 3.8303 21.1648 3.94805C21.4734 4.0658 21.7353 4.23203 21.9506 4.44675C22.1659 4.658 22.3327 4.91255 22.4511 5.21038C22.5695 5.50822 22.6287 5.83549 22.6287 6.1922C22.6287 6.41038 22.6072 6.61818 22.5642 6.81558C22.5247 7.01298 22.4655 7.20519 22.3865 7.3922C22.3112 7.57922 22.2179 7.7645 22.1067 7.94805C21.999 8.12813 21.8752 8.31341 21.7353 8.50389L19.8784 11.0753C19.8282 11.1446 19.7546 11.2017 19.6578 11.2467C19.5645 11.2918 19.4568 11.3143 19.3348 11.3143H18.3714L20.7342 8.36363Z" fill="white"/>
</svg>
