<svg width="14" height="15" viewBox="0 0 14 15" fill="none" xmlns="http://www.w3.org/2000/svg">
<path fill-rule="evenodd" clip-rule="evenodd" d="M7.73775 11.875C7.73775 12.0683 7.89445 12.225 8.08775 12.225H12.2499C12.4432 12.225 12.5999 12.0683 12.5999 11.875C12.5999 11.6817 12.4432 11.525 12.2499 11.525H8.08775C7.89445 11.525 7.73775 11.6817 7.73775 11.875ZM3.57085 12.221C3.67268 12.221 3.76945 12.1767 3.83594 12.0996L5.65688 9.98752C5.7831 9.84112 5.76674 9.62012 5.62034 9.4939C5.47394 9.36768 5.25294 9.38404 5.12672 9.53044L3.92085 10.9291L3.92085 3.12105C3.92085 2.92775 3.76415 2.77105 3.57085 2.77105C3.37755 2.77105 3.22085 2.92775 3.22085 3.12105L3.22085 10.9291L2.01499 9.53044C1.88877 9.38404 1.66777 9.36768 1.52137 9.4939C1.37496 9.62012 1.35861 9.84112 1.48483 9.98752L3.30577 12.0996C3.37226 12.1767 3.46903 12.221 3.57085 12.221ZM7.73775 8.85596C7.73775 9.04926 7.89445 9.20596 8.08775 9.20596H11.2094C11.4027 9.20596 11.5594 9.04926 11.5594 8.85596C11.5594 8.66266 11.4027 8.50596 11.2094 8.50596H8.08775C7.89445 8.50596 7.73775 8.66266 7.73775 8.85596ZM7.73775 6.01257C7.73775 6.20587 7.89445 6.36257 8.08775 6.36257H10.1688C10.3621 6.36257 10.5188 6.20587 10.5188 6.01257C10.5188 5.81927 10.3621 5.66257 10.1688 5.66257H8.08775C7.89445 5.66257 7.73775 5.81927 7.73775 6.01257ZM7.73775 3.12105C7.73775 3.31435 7.89445 3.47105 8.08775 3.47105H9.12829C9.32159 3.47105 9.47829 3.31435 9.47829 3.12105C9.47829 2.92775 9.32159 2.77105 9.12829 2.77105H8.08775C7.89445 2.77105 7.73775 2.92775 7.73775 3.12105Z" fill="#B5B5B6"/>
</svg>
