<svg width="20" height="20" viewBox="0 0 20 20" fill="none" xmlns="http://www.w3.org/2000/svg">
<path fill-rule="evenodd" clip-rule="evenodd" d="M10 0.399994C10.3314 0.399994 10.6 0.668623 10.6 0.999994V9.39999H19C19.3314 9.39999 19.6 9.66862 19.6 9.99999C19.6 10.3314 19.3314 10.6 19 10.6H10.6V19C10.6 19.3314 10.3314 19.6 10 19.6C9.66865 19.6 9.40003 19.3314 9.40003 19L9.40003 10.6H1.00002C0.668654 10.6 0.400024 10.3314 0.400024 9.99999C0.400024 9.66862 0.668654 9.39999 1.00002 9.39999H9.40003L9.40002 0.999994C9.40002 0.668623 9.66865 0.399994 10 0.399994Z" fill="#FF3E5B"/>
</svg>
